<mxfile host="Electron" agent="Mozilla/5.0 (Windows NT 10.0; Win64; x64) AppleWebKit/537.36 (KHTML, like Gecko) draw.io/24.7.17 Chrome/128.0.6613.36 Electron/32.0.1 Safari/537.36" version="24.7.17">
  <diagram name="Page-1" id="8nSmg-HqTqeQcztwKxwL">
    <mxGraphModel dx="1219" dy="713" grid="1" gridSize="10" guides="1" tooltips="1" connect="1" arrows="1" fold="1" page="1" pageScale="1" pageWidth="850" pageHeight="1100" math="0" shadow="0">
      <root>
        <mxCell id="0" />
        <mxCell id="1" parent="0" />
        <mxCell id="f0FLcD3i31FIvxZtQiDZ-31" style="edgeStyle=orthogonalEdgeStyle;rounded=0;orthogonalLoop=1;jettySize=auto;html=1;exitX=0.5;exitY=1;exitDx=0;exitDy=0;" edge="1" parent="1" source="f0FLcD3i31FIvxZtQiDZ-1" target="f0FLcD3i31FIvxZtQiDZ-2">
          <mxGeometry relative="1" as="geometry" />
        </mxCell>
        <mxCell id="f0FLcD3i31FIvxZtQiDZ-1" value="Start" style="ellipse;whiteSpace=wrap;html=1;" vertex="1" parent="1">
          <mxGeometry x="140" y="10" width="120" height="80" as="geometry" />
        </mxCell>
        <mxCell id="f0FLcD3i31FIvxZtQiDZ-22" style="edgeStyle=orthogonalEdgeStyle;rounded=0;orthogonalLoop=1;jettySize=auto;html=1;exitX=0.5;exitY=1;exitDx=0;exitDy=0;entryX=0.5;entryY=0;entryDx=0;entryDy=0;" edge="1" parent="1" source="f0FLcD3i31FIvxZtQiDZ-2" target="f0FLcD3i31FIvxZtQiDZ-3">
          <mxGeometry relative="1" as="geometry" />
        </mxCell>
        <mxCell id="f0FLcD3i31FIvxZtQiDZ-2" value="input monthlyPay" style="shape=parallelogram;perimeter=parallelogramPerimeter;whiteSpace=wrap;html=1;fixedSize=1;" vertex="1" parent="1">
          <mxGeometry x="140" y="100" width="120" height="60" as="geometry" />
        </mxCell>
        <mxCell id="f0FLcD3i31FIvxZtQiDZ-23" style="edgeStyle=orthogonalEdgeStyle;rounded=0;orthogonalLoop=1;jettySize=auto;html=1;exitX=0.5;exitY=1;exitDx=0;exitDy=0;entryX=0.5;entryY=0;entryDx=0;entryDy=0;" edge="1" parent="1" source="f0FLcD3i31FIvxZtQiDZ-3" target="f0FLcD3i31FIvxZtQiDZ-4">
          <mxGeometry relative="1" as="geometry" />
        </mxCell>
        <mxCell id="f0FLcD3i31FIvxZtQiDZ-3" value="input rent" style="shape=parallelogram;perimeter=parallelogramPerimeter;whiteSpace=wrap;html=1;fixedSize=1;" vertex="1" parent="1">
          <mxGeometry x="140" y="190" width="120" height="60" as="geometry" />
        </mxCell>
        <mxCell id="f0FLcD3i31FIvxZtQiDZ-21" style="edgeStyle=orthogonalEdgeStyle;rounded=0;orthogonalLoop=1;jettySize=auto;html=1;exitX=0.5;exitY=1;exitDx=0;exitDy=0;" edge="1" parent="1" source="f0FLcD3i31FIvxZtQiDZ-4" target="f0FLcD3i31FIvxZtQiDZ-5">
          <mxGeometry relative="1" as="geometry" />
        </mxCell>
        <mxCell id="f0FLcD3i31FIvxZtQiDZ-4" value="input utilities" style="shape=parallelogram;perimeter=parallelogramPerimeter;whiteSpace=wrap;html=1;fixedSize=1;" vertex="1" parent="1">
          <mxGeometry x="140" y="270" width="120" height="60" as="geometry" />
        </mxCell>
        <mxCell id="f0FLcD3i31FIvxZtQiDZ-24" style="edgeStyle=orthogonalEdgeStyle;rounded=0;orthogonalLoop=1;jettySize=auto;html=1;exitX=0.5;exitY=1;exitDx=0;exitDy=0;entryX=0.5;entryY=0;entryDx=0;entryDy=0;" edge="1" parent="1" source="f0FLcD3i31FIvxZtQiDZ-5" target="f0FLcD3i31FIvxZtQiDZ-7">
          <mxGeometry relative="1" as="geometry" />
        </mxCell>
        <mxCell id="f0FLcD3i31FIvxZtQiDZ-5" value="input groceries" style="shape=parallelogram;perimeter=parallelogramPerimeter;whiteSpace=wrap;html=1;fixedSize=1;" vertex="1" parent="1">
          <mxGeometry x="140" y="370" width="120" height="60" as="geometry" />
        </mxCell>
        <mxCell id="f0FLcD3i31FIvxZtQiDZ-25" style="edgeStyle=orthogonalEdgeStyle;rounded=0;orthogonalLoop=1;jettySize=auto;html=1;exitX=0.5;exitY=1;exitDx=0;exitDy=0;entryX=0.5;entryY=0;entryDx=0;entryDy=0;" edge="1" parent="1" source="f0FLcD3i31FIvxZtQiDZ-7" target="f0FLcD3i31FIvxZtQiDZ-8">
          <mxGeometry relative="1" as="geometry" />
        </mxCell>
        <mxCell id="f0FLcD3i31FIvxZtQiDZ-7" value="totalBills = rent + utilities + groceries" style="rounded=0;whiteSpace=wrap;html=1;" vertex="1" parent="1">
          <mxGeometry x="140" y="460" width="120" height="60" as="geometry" />
        </mxCell>
        <mxCell id="f0FLcD3i31FIvxZtQiDZ-26" style="edgeStyle=orthogonalEdgeStyle;rounded=0;orthogonalLoop=1;jettySize=auto;html=1;exitX=0.5;exitY=1;exitDx=0;exitDy=0;entryX=0.5;entryY=0;entryDx=0;entryDy=0;" edge="1" parent="1" source="f0FLcD3i31FIvxZtQiDZ-8" target="f0FLcD3i31FIvxZtQiDZ-9">
          <mxGeometry relative="1" as="geometry" />
        </mxCell>
        <mxCell id="f0FLcD3i31FIvxZtQiDZ-8" value="leftover = monthlyPay - totalBills" style="rounded=0;whiteSpace=wrap;html=1;" vertex="1" parent="1">
          <mxGeometry x="140" y="560" width="120" height="60" as="geometry" />
        </mxCell>
        <mxCell id="f0FLcD3i31FIvxZtQiDZ-27" style="edgeStyle=orthogonalEdgeStyle;rounded=0;orthogonalLoop=1;jettySize=auto;html=1;exitX=0.5;exitY=1;exitDx=0;exitDy=0;entryX=0.5;entryY=0;entryDx=0;entryDy=0;" edge="1" parent="1" source="f0FLcD3i31FIvxZtQiDZ-9" target="f0FLcD3i31FIvxZtQiDZ-10">
          <mxGeometry relative="1" as="geometry" />
        </mxCell>
        <mxCell id="f0FLcD3i31FIvxZtQiDZ-9" value="output monthlyPay" style="shape=parallelogram;perimeter=parallelogramPerimeter;whiteSpace=wrap;html=1;fixedSize=1;" vertex="1" parent="1">
          <mxGeometry x="140" y="650" width="120" height="60" as="geometry" />
        </mxCell>
        <mxCell id="f0FLcD3i31FIvxZtQiDZ-28" style="edgeStyle=orthogonalEdgeStyle;rounded=0;orthogonalLoop=1;jettySize=auto;html=1;exitX=0.5;exitY=1;exitDx=0;exitDy=0;entryX=0.5;entryY=0;entryDx=0;entryDy=0;" edge="1" parent="1" source="f0FLcD3i31FIvxZtQiDZ-10" target="f0FLcD3i31FIvxZtQiDZ-11">
          <mxGeometry relative="1" as="geometry" />
        </mxCell>
        <mxCell id="f0FLcD3i31FIvxZtQiDZ-10" value="output totalBills" style="shape=parallelogram;perimeter=parallelogramPerimeter;whiteSpace=wrap;html=1;fixedSize=1;" vertex="1" parent="1">
          <mxGeometry x="140" y="740" width="120" height="60" as="geometry" />
        </mxCell>
        <mxCell id="f0FLcD3i31FIvxZtQiDZ-30" style="edgeStyle=orthogonalEdgeStyle;rounded=0;orthogonalLoop=1;jettySize=auto;html=1;exitX=0.5;exitY=1;exitDx=0;exitDy=0;entryX=0.5;entryY=0;entryDx=0;entryDy=0;" edge="1" parent="1" source="f0FLcD3i31FIvxZtQiDZ-11" target="f0FLcD3i31FIvxZtQiDZ-29">
          <mxGeometry relative="1" as="geometry" />
        </mxCell>
        <mxCell id="f0FLcD3i31FIvxZtQiDZ-11" value="output leftover" style="shape=parallelogram;perimeter=parallelogramPerimeter;whiteSpace=wrap;html=1;fixedSize=1;" vertex="1" parent="1">
          <mxGeometry x="140" y="840" width="120" height="60" as="geometry" />
        </mxCell>
        <mxCell id="f0FLcD3i31FIvxZtQiDZ-29" value="End" style="ellipse;whiteSpace=wrap;html=1;" vertex="1" parent="1">
          <mxGeometry x="140" y="940" width="120" height="80" as="geometry" />
        </mxCell>
      </root>
    </mxGraphModel>
  </diagram>
</mxfile>
